<?xml version="1.0" encoding="UTF-8"?><svg id="a" xmlns="http://www.w3.org/2000/svg" xmlns:xlink="http://www.w3.org/1999/xlink" viewBox="200 100 886.59 405.53"><defs><style>.c{fill:#fff;}.d{opacity:.24;}.e,.f,.g{fill:none;}.e,.f,.g,.h{stroke-miterlimit:10;}.e,.f,.h{stroke:#1d1d1b;}.f{stroke-width:1.5px;}.g{stroke:#170f0e;}.i{fill:url(#b);}.j,.h{fill:#170f0e;}.k{fill:#1d1d1b;}</style><linearGradient id="b" x1="0" y1="252.77" x2="1086.59" y2="252.77" gradientTransform="matrix(1, 0, 0, 1, 0, 0)" gradientUnits="userSpaceOnUse"><stop offset="0" stop-color="#007694"/><stop offset=".4" stop-color="#3f418e"/><stop offset=".64" stop-color="#32325c"/><stop offset=".88" stop-color="#26242e"/><stop offset="1" stop-color="#221f1d"/></linearGradient></defs><rect class="i" width="1086.59" height="505.53"/><g><path class="j" d="M662.83-68.5V116.84h1.77v3.88h2.55v456.16h32.83V196.75l-3.88,1.84v-11.41l62.73-13.31-7.6-1.9-64.63,11.41,121.66-112.16,15.21,30.42V54.79l1.9-2.58v-5.7h3.8s-.85-3.38,0-3.8c3.8-1.9,3.8-11.41,0-11.41V-2.92s5.7-7.6-24.71-9.5l-38.02-13.31v-20.91l-15.21-9.5v-9.5h-3.8v5.7l-9.5-1.9v-9.5h-3.8v3.8h-6.65v5.77l2.85-.07v20.91l-41.82-17.11s1.9-9.5-25.66-10.46Z"/><path class="j" d="M534.51-111.27V6.59h-3.01v6.79h4.3v122.48h-2.15v2.28h3.74l2.82,408.34,1.9,1.9v24.71h98.85v-57.21c0-20.73-32.32-39.74-32.32-39.74,0,0-26.61,19.01-26.61,41.82v11.41h-3.8l-1.9-385.9h-1.9v-5.7h-1.9v-1.9h1.9V37s1.9-7.6,5.7-7.6c0,0-5.7,0-7.6,3.8l-1.9,3.8v-7.6l3.8-9.5V10.39h-9.5v-3.8h1.9V-25.73h-3.8l3.8-3.8v-3.8l11.41-5.7v-60.83l-5.7-5.7v7.6l-9.5-1.9v-11.41h-11.08l-.32,11.41h-11.41l-.16-11.41h-5.54Z"/><path class="j" d="M593.44,324.05v-43.72c0-10.93,17.11-24.71,17.11-24.71,0,0,19.01,7.6,19.01,22.81v44.32l-36.12,1.31Z"/><polygon class="j" points="751.23 171.97 760.73 170.07 808.26 73.12 823.46 96.51 859.58 192.88 859.58 194.79 845.97 194.79 845.97 206.19 851.98 204.29 851.98 198.59 855.78 198.59 855.78 204.29 863.39 202.39 863.39 197.81 867.19 196.69 867.19 202.39 875.74 201.44 874.79 195.89 879.54 195.74 879.54 201.44 885.25 199.54 884.3 192.88 888.1 192.88 889.05 199.54 893.8 198.59 893.8 192.09 895.7 190.98 895.7 199.22 878.59 230.9 876.69 232.81 909.01 236.61 918.51 251.82 888.1 320.25 888.1 282.23 886.2 282.23 886.2 278.43 890 278.43 863.39 230.9 839.3 275.89 840.57 280.33 838.67 310.75 825.37 310.75 806.36 333.56 806.36 293.64 802.55 293.64 804.45 289.84 787.35 251.82 770.24 291.74 772.14 293.64 779.74 293.64 789.25 272.73 793.05 282.23 787.35 297.44 781.64 299.34 781.64 327.86 762.63 343.06 762.63 346.87 768.34 360.17 768.75 576.89 760.73 578.79 758.83 173.87 751.23 171.97"/><polygon class="j" points="400.49 269.87 436.61 361.12 436.61 368.28 441.18 368.28 441.18 376.05 438.51 378.23 438.51 471.38 427.11 471.38 427.11 574.03 449.6 574.03 449.6 478.98 446.91 476.29 446.91 370.63 446.91 364.4 522.16 357.32 522.16 351.78 447.33 358.9 457.52 342.11 457.52 315.5 459.42 315.5 459.42 347.82 467.03 347.82 467.03 315.5 463.23 315.5 463.23 309.8 468.93 294.59 463.83 286.98 453.72 315.5 447.33 311.41 459.42 277.48 400.49 269.87"/><path class="j" d="M462.22,269.87l18.12,39.92-3.8,1.9,3.8,3.2s-1.9,31.75,0,31.39,17.11-19.37,17.11-19.37l11.41-1.9v-15.45l-9.5-3.56,11.41-32.32h-13.31l22.81-19.01,.85-23.76-23.66,23.76v-55.13h1.82v-15.21l-7.6-2.43v-5.02h-5.82v-5.86h-7.4v1.9h-5.7v1.9h-3.8v5.7h3.8l1.9,87.45-13.31,.32v1.58h.89Z"/><rect class="j" x="400.7" y="473.28" width="28.31" height="100.75"/><polygon class="j" points="611.5 446.67 617.21 465.68 635.97 446.67 611.5 446.67"/><path class="j" d="M634.32,387.74h-13.55s.24-15.68,.24-20.91,3.8-5.7,3.8-5.7h-6.8v-4h17.96v-1.46h-22.65v73.61h5.66l.12-5.42h13.31v-15.21h-11.41v-17.11h13.31v-3.8Z"/><path class="j" d="M605.8,370.63h-3.8v16.87h-6.27v2.43h10.07v1.62h-3.64l-.16,9.5h1.74l.16,24.71h-2.59l.12,3.52-10.84,.28v-71.55h15.21v1.09h-11.41v5.82h1.9c0-1.9,3.8-3.8,3.8-3.8,0,0,5.7,1.9,5.7,9.5Z"/><g><rect class="j" x="615.31" y="328.81" width="1.9" height="9.5"/><rect class="j" x="613.4" y="330.71" width="4.52" height="7.6"/><rect class="j" x="617.21" y="330.71" width="1.9" height="7.6"/></g><g><rect class="j" x="602.95" y="328.81" width=".95" height="9.5"/><rect class="j" x="602" y="330.71" width="2.26" height="7.6"/><rect class="j" x="603.9" y="330.71" width=".95" height="7.6"/></g><g><rect class="j" x="597.25" y="328.81" width=".95" height="9.5"/><rect class="j" x="596.3" y="330.71" width="2.26" height="7.6"/><rect class="j" x="598.2" y="330.71" width=".95" height="7.6"/></g><g><rect class="j" x="591.79" y="328.81" width=".83" height="9.5"/><rect class="j" x="590.96" y="330.71" width="1.97" height="7.6"/><rect class="j" x="592.62" y="330.71" width=".83" height="7.6"/></g><rect class="j" x="622.91" y="328.81" width="1.9" height="9.5"/><rect class="j" x="621.01" y="330.71" width="4.63" height="7.6"/><rect class="j" x="624.81" y="330.71" width="1.9" height="7.6"/><path class="j" d="M600.1,220.45l11.41-10.39v-17.96l-1.9-.16v-13.31l3.8-3.8c0-1.9-1.9-3.8-1.9-3.8,0,0-5.7,3.69-5.7,5.7h-1.9s0-5.7-.08-5.7,11.49-3.8,11.49-3.8v-1.9l-15.21,3.8"/><path class="j" d="M617.21,216.65l11.41-10.39v-17.96l-1.9-.16v-13.31l3.8-3.8c0-1.9-1.9-3.8-1.9-3.8,0,0-5.7,3.69-5.7,5.7h-1.9s0-5.7-.08-5.7,11.49-3.8,11.49-3.8v-1.9l-15.21,3.8"/><path class="j" d="M582.99,224.25l11.41-10.39v-17.96l-1.9-.16v-13.31l3.8-3.8c0-1.9-1.9-3.8-1.9-3.8,0,0-5.7,3.69-5.7,5.7h-1.9s0-5.7-.08-5.7,11.49-3.8,11.49-3.8v-1.9l-15.21,3.8"/><polygon class="j" points="400.49 294.91 373.88 370.63 379.58 370.63 404.3 300.29 400.49 294.91"/><polygon class="j" points="345.36 361.12 345.36 337.87 341.56 330.71 341.56 329.61 330.16 302.19 320.65 328.81 330.16 338.31 330.16 363.02 322.55 374.43 324.45 378.23 324.45 382.03 320.65 386.4 320.65 567.93 318.75 567.93 318.75 384.1 311.15 384.1 311.15 374.43 282.63 292.69 315.31 292.69 315.31 233.76 313.01 233.76 313.01 218.83 314.95 218.83 314.95 214.75 316.85 214.75 316.85 210.94 320.65 210.94 320.65 212.85 324.45 212.85 324.45 207.14 326.35 207.14 326.35 214.75 332.06 214.75 332.06 220.45 337.76 220.45 337.76 233.76 335.86 233.76 335.86 286.98 352.97 267.97 352.97 264.33 356.77 264.17 356.77 262.27 358.67 262.27 358.67 264.33 362.47 264.17 362.47 260.37 364.37 260.37 364.37 262.55 368.18 262.27 368.18 258.47 370.08 258.47 370.08 262.55 373.88 260.61 373.88 258.59 375.78 258.47 375.78 260.61 341.56 298.39 347.27 302.19 368.18 302.19 358.67 325 364.37 328.81 370.08 313.6 375.78 326.1 373.88 327.31 373.88 351.62 398.59 283.18 398.59 285.08 369.55 370.63 368.18 366.83 371.98 357.32 371.98 326.9 368.18 328.81 368.18 345.91 358.67 345.91 345.36 361.12"/><polygon class="j" points="369.67 294.91 390.99 294.91 380.33 325.49 369.67 294.91"/><polygon class="j" points="329.27 332.77 333.96 340.21 333.96 364.92 337.76 363.02 337.76 330.71 333.51 317.36 329.27 332.77"/><path class="j" d="M521.11,269.87h-9.34s10.39,25.4,10.39,26.01-1.05-26.01-1.05-26.01Z"/><polygon class="j" points="512.65 288.88 506.95 305.99 511.76 309.59 511.76 342.11 514.55 342.11 514.55 324.4 522.16 324.4 522.16 308.38 518.36 308.38 518.36 300.29 512.65 288.88"/><polyline class="j" points="465.28 315.5 477.54 313.92 477.54 317.36 465.28 319.3"/><polygon class="j" points="396.23 323.26 396.23 325.49 397.1 325.49 397.1 352.67 402.39 352.67 402.39 324.52 402.39 323.26 396.23 323.26"/><polygon class="j" points="404.3 323.26 404.3 324.76 405.95 324.76 405.95 352.67 411.78 352.67 411.78 325 413.8 325 413.8 323.26 404.3 323.26"/><polygon class="j" points="1013.14 315.54 944.18 195.74 947.25 195.74 947.98 108.29 945.63 108.29 945.63 98.68 948.06 98.68 948.06 96.88 955.18 96.88 955.18 106.39 961.29 106.39 961.29 113.99 966.99 113.99 966.99 117.8 968.89 117.8 968.89 134.9 968.89 159.62 968.89 180.53 972.69 180.53 972.69 182.43 980.3 180.53 980.3 176.73 984.1 176.73 984.1 180.53 993.6 178.63 993.6 174.83 997.41 174.83 997.41 178.63 1005.01 176.73 1005.01 172.92 1008.81 172.92 1008.81 176.73 1013.14 174.62 1012.61 190.03 1003.11 207.14 1016.42 229.95 1016.42 315.54 1013.14 315.54"/><polygon class="j" points="697.05 203.34 761.6 189.08 761.6 192.88 693.25 207.14 695.15 203.34 697.05 203.34"/><path class="j" d="M725.56,239.46v3.44l-13.31,2.27c0-1.34,0,13.07,0,10.46,0-2.85,7.6-8.55,7.6-8.55,0,0,5.7,3.35,5.7,5.7v13.33h-7.83v7.58h-2.18v1.9h-2.67v1.9h7.1v-1.9h5.58v3.8h-5.7v15.21h-1.94v1.9h3.84v20.91h-3.36v1.9h-7.89v-76.04l15.05-3.8Z"/><path class="j" d="M725.56,347.82v1.9l-13.31,1.9s0,15.42,0,12.34c0-4.73,9.5-10.44,9.5-10.44l1.9,3.8s-1.9,0-3.8,1.9-.95,22.69-.95,22.69l-6.65,.49v3.44h9.5v36.12h5.7v1.7h-6.39v2.1h-10.68v-75.88l15.17-2.06Z"/><path class="j" d="M603.9,49.36l-11.41,3.8v-15.49l5.7-2.55v-2.87l1.9-1.9h-4.85s1.05-5.7,2.95-7.6c1.9-1.9-9.5,0-9.5,9.5v112.16l1.9-1.9v-7.6l13.31-3.8,1.9-1.9-13.31,3.8v-19.01l11.41-7.6v-28.51l-9.5,3.8v-3.8l9.5-3.8v-24.71Z"/><path class="j" d="M622.91,43.66l-11.41,3.8v-13.59l5.7-2.55v-2.87l1.9-1.9h-4.85s1.05-5.7,2.95-7.6-9.5,0-9.5,9.5v112.16l1.9-1.9v-9.5l15.21-3.8v-1.9l-13.31,3.8v-17.11l11.41-7.6v-28.51l-9.5,3.8v-3.8l9.5-3.8v-26.61Z"/><path class="j" d="M630.51,41.76v-15.49l5.7-2.55v-2.87l1.9-1.9h-4.85s1.05-5.7,2.95-7.6-9.5,0-9.5,9.5v112.16l1.9-1.9v-7.6l15.21-5.7-1.9,1.9-11.41,1.9V41.76Z"/><polygon class="j" points="571.58 138.71 643.82 117.8 643.82 119.7 571.58 140.61 571.58 138.71"/><path class="j" d="M575.39,233.76v-1.21c0-.69,93.15-17.8,93.15-17.8v2.91l-93.15,17.15"/><polygon class="j" points="662.83 115.89 645.72 121.6 645.72 129.2 647.3 129.2 647.62 123.5 664.6 116.84 664.73 115.89 662.83 115.89"/><polyline class="j" points="664.74 120.73 647.62 125.94 647.62 127.62 667.29 120.73"/><polyline class="j" points="531.5 13.38 516.45 17.04 516.45 26.75 519.16 26.75 518.36 18.94 535.8 13.38"/><polygon class="j" points="526.13 35.32 529.76 34.15 529.76 59.75 526.13 60.56 526.13 35.32"/><polygon class="j" points="531.66 155.82 527.86 157.72 527.86 180.53 531.66 179.76 531.66 155.82"/><path class="g" d="M574.43,10.39l67.49-21.86s.78-5.7,8.55-6.65c4.48-.55,18.06,0,18.06,0"/><path class="g" d="M663.78-6.72c-8.55,.06-20.91-1.9-20.91,7.6"/><path class="g" d="M669.48,.88c-3.8,0-14.01-.33-17.11,0-3.66,.39-5.7,1.74-5.7,3.8"/><polygon class="j" points="442.32 372.53 322.55 382.03 324.45 378.23 441.18 368.28 442.32 372.53"/><polyline class="j" points="373.88 370.63 321.99 375.16 322.55 376.33 377.68 372.53 379.74 370.19"/><path class="j" d="M285.57,271.78h-8.95c-.48,0-.86-.39-.86-.86v-21.63l-4.53-.32v2.09c0,.39,.26,.73,.63,.83l2.54,.7c.37,.1,.63,.44,.63,.83v15.59c0,.48-.39,.86-.86,.86h-5.88c-.48,0-.86,.39-.86,.86v3.98c0,.48-.39,.86-.86,.86h-2.08c-.48,0-.86,.39-.86,.86v1.59c0,.48-.39,.86-.86,.86h-2.24c-.48,0-.86-.39-.86-.86v-1.47c0-.46-.36-.84-.82-.86l-1.92-.09c-.49-.02-.9,.37-.9,.86v1.66c0,.43-.32,.8-.75,.86l-2.08,.27c-.52,.07-.97-.34-.97-.86v-1.58c0-.43-.32-.8-.75-.86l-2.08-.27c-.52-.07-.97,.34-.97,.86v1.07c0,.48-.39,.86-.86,.86h-3.98c-.48,0-.86-.39-.86-.86v-8.79c0-.48-.39-.86-.86-.86h-3.98c-.48,0-.86-.39-.86-.86v-1.03c0-.48-.39-.86-.86-.86h-2.08c-.48,0-.86,.39-.86,.86v1.89h-1.9v-6.74c0-.48-.39-.86-.86-.86h-3.98c-.48,0-.86,.39-.86,.86v2.08c0,.48-.39,.86-.86,.86h-2.28c-.49,0-.88,.41-.86,.9l.17,3.91c.02,.49-.37,.9-.86,.9h-4.8v1.82l-3.8,.08v-1.9h-3.8v1.82l-3.8,.08v-1.9h-3.8v2.14l-1.85-.24s-.07,0-.11,0h-5c-.38,0-.72,.26-.83,.63l-33.86,118.51c-.11,.37-.44,.63-.83,.63h-8.05v2.47h9.71c.38,0,.72-.25,.83-.62l33.51-113.33c.24-.8,1.37-.83,1.64-.04l35.04,101.43c.12,.35,.45,.58,.81,.58h18.25c.36,0,.68-.22,.8-.55l14.49-37.32c.04-.1,.06-.21,.06-.31v-2.78c0-.48-.39-.86-.86-.86h-5.96c-.44,0-.81-.34-.86-.78l-1.47-14.73c-.09-.9-1.32-1.07-1.66-.23l-6.11,15.29c-.11,.28-.36,.48-.66,.53l-3.81,.62c-.65,.11-1.17-.53-.95-1.15l10.2-27.94c.27-.73,1.29-.76,1.6-.05l11.52,26.33c.32,.73,1.38,.67,1.61-.09l8.78-28.09c.03-.08,.04-.17,.04-.26v-31.38c0-.45,.35-.83,.81-.86l7.89-.5c.45-.03,.81-.41,.81-.86v-3.43c0-.48-.39-.86-.86-.86Z"/><polygon class="j" points="152.96 332.28 165.82 363.1 173.59 332.28 152.96 332.28"/><polygon class="j" points="154.17 345.87 148.83 366.99 145.19 366.99 145.19 369.17 148.59 369.17 148.59 387.37 157.57 387.37 157.57 366.62 154.17 345.87"/><path class="j" d="M-118.48,337.96l19.29,67.37v156.77H103.21l65.04,1.94v-88.82l-19.66-87.85h-2.18v-34.22l7.77-13.83-1.21-2.67-7.77,13.35-1.46-4.13v-20.39l33.73-9.46v-3.48h-2.67v2.59h-4.69v-2.59h-2.75v2.75h-4.77v-3.15h-3.64v3.64h-3.72l-1.94-3.64-.32-18.28h2.02v-15.13l-9.87-7.93v-6.96h-5.02v7.85l1.86-.24,.57,39.56-12.13-.81-15.53-50.64v-33.98h-1.78v34.3l-11.33,48.05-3.56,.32v-2.59h-3.07v2.91h-5.02v-2.91h-3.4v2.91h-4.21v-2.59h-2.75v2.91h-6.15v-59.21l-1.21-.4v-8.98l-13.83-2.55v11.41h-2.06v-13.47s-.61-1.09-3.52-.85v14.8l-6.8,.61-.24,50.72-3.03-.36v-1.94h-2.79v1.94l-4.61-.12v-2.31h-2.18v2.55l-151.8-15.65v52.88Z"/><polyline class="j" points="7.72 301.06 7.72 295.6 4.56 295.11 4.56 301.06"/><polyline class="j" points="18.64 302.43 18.64 296.97 15.48 296.49 15.48 302.43"/><polyline class="j" points="28.83 304.03 28.83 298.57 25.67 298.09 25.67 304.03"/><polygon class="j" points="195.91 291.59 198.18 297.42 173.59 382.03 166.15 392.49 195.91 291.59"/><polygon class="j" points="185.72 355.82 198.18 353.88 198.18 377.42 185.72 377.42 185.72 355.82"/><rect class="j" x="203.19" y="353.88" width="12.86" height="23.54"/><polyline class="j" points="184.81 343.43 214.12 341.14 214.12 343.43 182.16 345.87"/><rect class="j" x="164.37" y="401.93" width="1.78" height="67.47"/><rect class="j" x="235.96" y="379.61" width="2.91" height="189.29"/><polygon class="j" points="223.58 382.03 175.77 384.22 175.77 386.4 223.58 384.22 223.58 382.03"/><path class="j" d="M212.74,410.51c0-5.66,5.02-5.5,5.02-5.5v18.61h-4.37v2.59h4.37v27.5h-5.02v-43.2Z"/><rect class="j" x="211.12" y="401.93" width="1.62" height="51.77"/><rect class="j" x="211.12" y="401.93" width="7.28" height="1.62"/><g><path class="j" d="M333.11,402.8c0-3.18,.69-5.6,3.2-5.6,2.27,0,3.2,1.94,3.2,1.94v17.04h-5.74v2.64h5.74v28.05h-6.39v-44.06Z"/><rect class="j" x="331.49" y="394.06" width="1.62" height="52.8"/><rect class="j" x="331.5" y="394.1" width="7.28" height="1.65" transform="translate(-4.81 4.13) rotate(-.7)"/></g><g><path class="j" d="M460.71,387.41c0-3.86,.99-6.79,4.62-6.79,3.28,0,4.62,2.35,4.62,2.35v20.65h-8.31v3.2h8.31v34h-9.24v-53.41Z"/><rect class="j" x="458.37" y="376.81" width="2.34" height="64.01"/><polygon class="j" points="468.89 376.21 458.37 376.92 458.4 378.92 468.91 377.57 468.89 376.21"/></g><path class="j" d="M369.19,398.06c0-3.18,.69-5.6,3.2-5.6,2.27,0,3.2,1.94,3.2,1.94v17.04h-5.74v2.64h5.74v28.05h-6.39v-44.06Z"/><rect class="j" x="367.57" y="389.31" width="1.62" height="52.8"/><rect class="j" x="367.58" y="389.36" width="7.28" height="1.65" transform="translate(-4.74 4.57) rotate(-.7)"/><path class="j" d="M183.7,412.04c0-5.66,5.02-5.5,5.02-5.5v18.61h-4.37v2.59h4.37v27.5h-5.02v-43.2Z"/><rect class="j" x="182.08" y="403.47" width="1.62" height="51.77"/><rect class="j" x="182.08" y="403.47" width="7.28" height="1.62"/><polygon class="j" points="285.06 310.52 286.43 317.36 263.38 384.22 260.14 384.22 285.06 310.52"/><rect class="j" x="287.81" y="341.14" width="7.12" height="25.68"/><rect class="j" x="279.88" y="341.14" width="5.62" height="25.68"/><polygon class="j" points="311.15 382.03 265.81 383.65 265.81 385.59 311.15 384.1 311.15 382.03"/><line class="h" x1="282.63" y1="299.77" x2="255.49" y2="382.03"/><path class="j" d="M208.86,494.8c0-6.63,5.18-7.71,5.18-3.26v15.4h-4.04v3.07h4.04v31.71h2.1v-32.03h5.82v32.03h-5.82v2.27h-7.28v-49.18Z"/><polygon class="j" points="221.96 486.39 208.86 486.39 208.86 543.98 206.43 543.17 206.43 484.93 221.96 484.93 221.96 486.39"/><path class="j" d="M217.76,493.18c-.16-4.69,4.37-5.5,4.21-2.27-.16,3.24,0,16.83,0,16.83h-4.21v-14.56Z"/><path class="j" d="M258.4,493.45c0-6.81,5.18-7.92,5.18-3.35v15.82h-4.04v3.16h4.04v32.58h2.1v-32.91h5.82v32.91h-5.82v2.33h-7.28v-50.53Z"/><polygon class="j" points="271.51 484.81 258.4 484.81 258.4 543.98 255.98 543.15 255.98 483.31 271.51 483.31 271.51 484.81"/><path class="j" d="M267.3,491.79c-.16-4.82,4.37-5.65,4.21-2.33-.16,3.32,0,17.29,0,17.29h-4.21v-14.96Z"/><path class="j" d="M289.59,492.43c0-6.81,5.18-7.92,5.18-3.35v15.82h-4.04v3.16h4.04v32.58h2.1v-32.91h5.82v32.91h-5.82v2.33h-7.28v-50.53Z"/><polygon class="j" points="302.69 483.79 289.59 483.79 289.59 542.96 287.16 542.13 287.16 482.29 302.69 482.29 302.69 483.79"/><path class="j" d="M298.49,490.77c-.16-4.82,4.37-5.65,4.21-2.33s0,17.29,0,17.29h-4.21v-14.96Z"/><path class="j" d="M330.43,490.42c0-6.81,5.18-7.92,5.18-3.35v15.82h-4.04v3.16h4.04v32.58h2.1v-32.91h5.82v32.91h-5.82v2.33h-7.28v-50.53Z"/><polygon class="j" points="343.53 481.77 330.43 481.77 330.43 540.95 328 540.12 328 480.28 343.53 480.28 343.53 481.77"/><path class="j" d="M339.32,488.76c-.16-4.82,4.37-5.65,4.21-2.33-.16,3.32,0,17.29,0,17.29h-4.21v-14.96Z"/><path class="j" d="M376.22,490.42c0-6.81,5.18-7.92,5.18-3.35v15.82h-4.04v3.16h4.04v32.58h2.1v-32.91h5.82v32.91h-5.82v2.33h-7.28v-50.53Z"/><polygon class="j" points="389.33 481.77 376.22 481.77 376.22 540.95 373.8 540.12 373.8 480.28 389.33 480.28 389.33 481.77"/><polygon class="j" points="365.95 481.75 362.86 481.75 362.86 539.15 361.45 539.17 361.45 480.28 365.95 480.28 365.95 481.75"/><path class="j" d="M385.12,488.76c-.16-4.82,4.37-5.65,4.21-2.33s0,17.29,0,17.29h-4.21v-14.96Z"/><path class="j" d="M178.93,494.8c0-6.63,5.18-7.71,5.18-3.26v15.4h-4.04v3.07h4.04v31.71h2.1v-32.03h5.82v32.03h-5.82v2.27h-7.28v-49.18Z"/><polygon class="j" points="192.03 486.39 178.93 486.39 178.93 543.98 176.5 543.17 176.5 484.93 192.03 484.93 192.03 486.39"/><path class="j" d="M187.83,493.18c-.16-4.69,4.37-5.5,4.21-2.27-.16,3.24,0,16.83,0,16.83h-4.21v-14.56Z"/><path class="j" d="M259.19,405.82c0-4.91,4.49-4.7,4.49-2.31v16.5h-4.49v-14.2Z"/><path class="j" d="M251.43,405.82c0-4.91,4.49-4.7,4.49-2.31v16.5h-4.49v-14.2Z"/><rect class="j" x="259.19" y="423.84" width="4.49" height="28.27"/><rect class="j" x="251.43" y="423.84" width="4.49" height="28.27"/><polygon class="j" points="250.46 452.11 248.27 452.11 248.27 397.26 263.68 397.26 263.68 398.96 250.52 398.96 250.46 452.11"/><g><path class="j" d="M402.18,391.16c0-6.47-3.53-5.02-4.22-4.65s-.49-2.61,1.32-2.67,2.89,0,2.89,0v-1.03h-2.99c-1.77,0-2.75,1.27-2.75,3.03v54.85h5.74v-32.09h-3.58v-1.82h3.58v-15.61Z"/><g><path class="j" d="M404.53,406.1v-15.83c0-6.43,6.09-6.57,6.09-.37v16.21h-6.09Z"/><path class="j" d="M412.89,405.32v-15.83c0-6.43,5.66-6.57,5.66-.37v16.21h-5.66Z"/><path class="j" d="M421.22,405.32v-15.83c0-6.43,5.34-6.57,5.34-.37v16.21h-5.34Z"/><path class="j" d="M404.65,389.43v-5.39c0-1.52,1.52-2,3.04-2,3.85,0,2.6,0,2.6,0v.82h-2.6c-.99,0-2.13,.39-2.13,1.27v3.19"/><path class="j" d="M413.02,388.65v-5.39c0-1.52,1.52-2,3.04-2,3.85,0,2.6,0,2.6,0v.82h-2.6c-.99,0-2.13,.39-2.13,1.27v3.19"/><path class="j" d="M421.34,388.65v-5.39c0-1.52,1.52-2,3.04-2,3.85,0,2.6,0,2.6,0v.82h-2.6c-.99,0-2.13,.39-2.13,1.27v3.19"/><rect class="j" x="404.3" y="408.12" width="6.55" height="31.65"/><rect class="j" x="421.34" y="407.35" width="5.22" height="31.65"/><rect class="j" x="413.02" y="407.35" width="5.54" height="31.65"/></g></g><g><path class="j" d="M287.06,403.6c0-5.94-3.17-4.61-3.79-4.27s-.44-2.4,1.19-2.45,2.6,0,2.6,0v-.95h-2.69c-1.59,0-2.47,1.17-2.47,2.79v50.36h5.15v-29.47h-3.22v-1.67h3.22v-14.34Z"/><g><path class="j" d="M289.17,417.32v-14.54c0-5.91,5.47-6.03,5.47-.34v14.88h-5.47Z"/><path class="j" d="M296.68,416.6v-14.54c0-5.91,5.08-6.03,5.08-.34v14.88h-5.08Z"/><path class="j" d="M304.16,416.6v-14.54c0-5.91,4.8-6.03,4.8-.34v14.88h-4.8Z"/><path class="j" d="M289.28,402.01v-4.95c0-1.39,1.36-1.84,2.73-1.84,3.46,0,2.34,0,2.34,0v.75h-2.34c-.89,0-1.91,.36-1.91,1.17v2.92"/><path class="j" d="M296.79,401.29v-4.95c0-1.39,1.36-1.84,2.73-1.84,3.46,0,2.34,0,2.34,0v.75h-2.34c-.89,0-1.91,.36-1.91,1.17v2.92"/><path class="j" d="M304.27,401.29v-4.95c0-1.39,1.36-1.84,2.73-1.84,3.46,0,2.34,0,2.34,0v.75h-2.34c-.89,0-1.91,.36-1.91,1.17v2.92"/><rect class="j" x="288.96" y="419.18" width="5.88" height="29.06"/><rect class="j" x="304.27" y="418.46" width="4.69" height="29.06"/><rect class="j" x="296.79" y="418.46" width="4.97" height="29.06"/></g></g><path class="j" d="M368.01,502.97h-3.71v-12.86c0-3.15,1-4.85,3.71-4.85v17.72Z"/><polygon class="j" points="406.56 476.92 406.56 468.91 400.7 468.91 400.7 466.24 398.59 466.24 398.59 450.47 400.7 450.47 400.7 447.52 438.51 449.01 439.32 480.28 406.08 480.28 406.56 476.92"/><polygon class="j" points="369.19 468.31 402.18 467.58 408.5 467.58 408.5 469.03 369.19 469.76 369.19 468.31"/><polygon class="j" points="372.38 457.43 396.44 456.05 396.44 463.01 372.38 463.9 372.38 457.43"/><rect class="j" x="528.14" y="484.2" width="3.36" height="24.27"/><rect class="j" x="528.14" y="384.46" width="3.36" height="24.27"/><rect class="j" x="528.14" y="274.85" width="3.36" height="24.27"/><path class="j" d="M468.85,484.2c0-3.11-3.4-4.68-3.4-4.68,0,0-3.4,1.55-3.4,4.68v19.41h5.06v-17.29c0-1.64,1.74-2.12,1.74-2.12Z"/><path class="j" d="M479.73,484.2c0-3.11-3.4-4.68-3.4-4.68,0,0-3.4,1.55-3.4,4.68v19.41h6.8v-19.41Z"/><path class="j" d="M459.14,484.2c0-3.11-3.4-4.68-3.4-4.68,0,0-3.4,1.55-3.4,4.68v63.28h1.6v-3.76h1.8v-37.98h-2.1l.06-2.18h2.04v-16.44c0-1.74,3.4-2.91,3.4-2.91Z"/><rect class="j" x="451.45" y="475.65" width="30.88" height="1.52" transform="translate(-7.42 7.38) rotate(-.9)"/><g><path class="j" d="M522.16,378.82v-4.68s-4.23,1.55-4.23,4.68v19.41h4.23v-19.41Z"/><path class="j" d="M514.51,378.82c0-3.11-3.4-4.68-3.4-4.68,0,0-3.4,1.55-3.4,4.68v19.41h6.8v-19.41Z"/><rect class="j" x="518.05" y="401.33" width="4.11" height="36.83"/><rect class="j" x="507.96" y="401.33" width="6.31" height="36.83"/><polygon class="j" points="502.5 371.22 522.16 370.16 522.14 368.81 502.48 369.7 502.5 371.22"/><polygon class="j" points="502.5 370.61 502.5 444.14 504.77 444.14 504.77 440.24 506.22 440.24 506.22 370.56 502.5 370.61"/></g><g><path class="j" d="M522.16,486.39v-4.68s-4.23,1.55-4.23,4.68v19.41h4.23v-19.41Z"/><path class="j" d="M514.51,486.39c0-3.11-3.4-4.68-3.4-4.68,0,0-3.4,1.55-3.4,4.68v19.41h6.8v-19.41Z"/><rect class="j" x="502.49" y="477.12" width="19.67" height="1.52" transform="translate(-7.43 8.09) rotate(-.9)"/><polygon class="j" points="502.5 478.79 502.5 552.32 504.77 552.32 504.77 548.42 506.22 548.42 506.22 478.73 502.5 478.79"/></g><polygon class="j" points="608.63 432.03 590.59 432.03 590.59 433.48 636.78 433.48 636.78 432.36 608.63 432.03"/><path class="j" d="M588.3,363.14c-3.28,0-4.13,2.06-4.13,6.07v58.45h2.03v-58.32c.03-3.88,.61-4.37,2.09-4.37v-1.82Z"/><polygon class="j" points="588.33 358.21 581.17 358.88 581.17 428.26 582.75 428.26 582.75 360.82 588.33 360.09 588.33 358.21"/><polyline class="e" points="581.17 350.73 590.59 346.28 611.5 345.39 638.32 345.39"/><path class="f" d="M581.17,290.62c0-30.74,24.63-48.05,24.63-48.05"/><path class="f" d="M589.7,324.05v-41.17c0-16.28,18.93-31.25,18.93-31.25"/><polygon class="k" points="862.96 248.24 868.3 257.62 854.24 289.45 847.91 283.99 862.96 248.24"/><rect class="k" x="852.28" y="283.99" width="4.37" height="40.99"/><polygon class="k" points="870.08 323.63 859.73 323.63 859.73 288.04 870.08 286.98 870.08 323.63"/><path class="k" d="M856.65,280.43c.17,.02,.68,0,1.46-.03,6.16-.27,28.96-1.98,28.96-1.98v3.13l-32.6,1.78"/><polygon class="k" points="885.13 285.61 873.64 286.34 873.64 323.63 874.93 323.63 874.93 287.95 885.13 286.66 885.13 285.61"/><polygon class="k" points="787.95 295.82 801.48 294.67 801.48 297.74 789.51 298.88 789.51 336.09 786.44 336.09 786.44 295.8 787.95 295.82"/><polygon class="j" points="944.18 227.2 944.18 232.79 945.8 232.79 945.8 227.2 952.83 235.45 902.6 341.51 890.71 341.51 890.71 336.09 944.18 227.2"/><polygon class="j" points="1013.14 328.77 894.71 340.17 894.71 343.33 1013.14 331.19 1013.14 328.77"/><polygon class="j" points="961.21 268.22 974.49 267.61 974.49 268.22 962.12 269.01 962.12 308.87 961.21 308.87 961.21 268.22"/><polygon class="j" points="944.84 269.42 958.12 268.82 958.12 269.42 945.75 270.21 945.75 310.07 944.84 310.07 944.84 269.42"/><polygon class="j" points="941.75 269.92 931.88 270.72 929.08 285.61 929.08 309.9 941.75 308.87 941.75 269.92"/><polygon class="j" points="917.52 250.22 941.75 201.64 943.21 203.42 918.51 251.82 915.87 251.82 917.52 250.22"/><polygon class="j" points="945.8 227.2 945.8 204.88 947.82 207.79 947.82 230.59 945.8 227.2"/><path class="j" d="M705.3,482.99c0-8.37,7.22-11.04,7.22-11.04,0,0,7.22,2.55,7.22,11.04v14.92h-11.89v4.13h11.89v43.2h-9.71l-6.43,4.25v-81.78h32.52v2.06h-30.82v13.23Z"/><path class="j" d="M734.68,482.99c0-8.49-6.45-11.04-6.45-11.04,0,0-6.45,2.67-6.45,11.04v14.92h12.89v-14.92Z"/><path class="j" d="M787.8,484.93v12.98s1.03-.19,1.65-1.43c.27-.51,.48-1.2,.51-2.13v-.02c1.75-5.7,5.57-7.68,5.57-7.68,0,0,6.44,3.19,6.44,13.86v18.71h-8.59v2.95h2.15v27.32h-2.15v1.44h-8.73v-68.19h17.32v2.19h-14.18Z"/><path class="j" d="M787.8,377.51v12.98s1.03-.19,1.65-1.43c.27-.51,.48-1.2,.51-2.13v-.02c1.75-5.7,5.57-7.68,5.57-7.68,0,0,6.44,3.19,6.44,13.86v18.71h-8.59v2.95h2.15v27.32h-2.15v1.44h-8.73v-68.19h17.32v2.19h-14.18Z"/><path class="j" d="M853.87,482.86v13.65s1.15-.2,1.85-1.5c.3-.54,.53-1.26,.58-2.24v-.02c1.96-5.99,6.24-8.07,6.24-8.07,0,0,7.22,3.36,7.22,14.57v15.78l-9.63,.24v3.44h2.41v32.01h-2.41v1.52h-9.78v-71.67h37.08v2.3h-33.57Z"/><path class="j" d="M789.97,494.36c-.04,.93-.25,1.62-.51,2.13,.13-.76,.3-1.46,.51-2.13Z"/><polygon class="j" points="721.79 501.92 721.79 548.39 723.99 546.23 734.68 546.23 734.68 501.92 721.79 501.92"/><path class="j" d="M887.43,497.87c0-9.76-7.77-12.69-7.77-12.69,0,0-7.77,3.07-7.77,12.69v54.37h3.59l-.2-2.02h4.37v-2.79h7.77v-28.15l-8.74-.36v-3.88h8.74v-17.16Z"/><path class="j" d="M938.07,481.22v13.97s1.23-.2,1.98-1.53c.32-.55,.57-1.29,.61-2.29v-.02c2.09-6.14,6.67-8.26,6.67-8.26,0,0,7.72,3.44,7.72,14.91v16.15l-10.29,.25v3.52h2.57v32.77h-2.57v1.55h-10.45v-73.37h39.63v2.35h-35.87Z"/><path class="j" d="M973.95,496.58c0-10-8.3-12.99-8.3-12.99,0,0-8.3,3.14-8.3,12.99v55.65h3.84l-.21-2.07h4.67v-2.86h8.3v-28.82l-9.34-.37v-3.97h9.34v-17.56Z"/><path class="j" d="M853.87,374.14l-.05,9.29h.73c0-7.58,8.9-6.98,8.9-6.98,0,0-2.68,4.66-3.27,7.61l-.1,23.09h-1.76l.12,2.83h4.1v32.01h-2.41v1.52h-9.78v-71.67l37.08-2.67v1.94l-33.57,3.03Z"/><path class="j" d="M884.85,381.34c-.49-3.91-6.28-6.02-6.28-6.02,0,0-7.77,3.07-7.77,12.69v52.99l7.02-.24-.59-27.18,.36-8.86v-2.67l2.44-.12s-.35-9.51-.25-13.75c.12-5.22,5.07-6.84,5.07-6.84Z"/><path class="j" d="M938.9,367.16l-.05,9.29h.73c0-7.58,8.9-6.98,8.9-6.98,0,0-2.68,4.66-3.27,7.61l-.1,23.09h-1.76l.12,2.83h4.1v32.01h-2.41v1.52h-9.78v-71.67l37.08-2.67v1.94l-33.57,3.03Z"/><path class="j" d="M969.89,374.37c-.49-3.91-6.28-6.02-6.28-6.02,0,0-7.77,3.07-7.77,12.69v52.99l7.02-.24-.59-27.18,.36-8.86v-2.67l2.44-.12s-.35-9.51-.25-13.75c.12-5.22,5.07-6.84,5.07-6.84Z"/><polyline class="e" points="581.57 451.6 591 448.04 612.68 448.04"/><polygon class="j" points="881.89 331.39 762.63 344.66 762.63 346.87 881.89 333.34 881.89 331.39"/><polygon class="j" points="824.94 347.82 827.21 351.29 827.21 576.89 824.94 576.89 824.94 347.82"/></g><g class="d"><g><path class="c" d="M1017.03,117.01c5.39,26.58,5.41,54.25,.04,80.84,.14-.36-27.86-8.91-29.95-10.64-8.31-6.87-7.87-8.06-5.67-19.26,3.87-19.73,19.85-39.29,35.57-50.93Z"/><g><path class="c" d="M975.58,285.71c2.74,0,5.49-.18,8.21-.54,3.82-.49,8.3-1.93,9.02-5.89,.38-2.09-.56-4.2-2.2-5.55-2.82-2.33-6.72-2.14-9.94-.8-2.12,.89-4,2.23-5.82,3.66-1.84,.66-3.64,1.48-4.73,3.24-.54,.87-.76,1.94-.49,2.93,.68,2.53,3.56,2.95,5.95,2.94Z"/><path class="c" d="M1047.73,399.85c-18.16-9.94-39.13-13.07-59.4-17.29-20.27-4.21-41.15-10.11-56.4-24.12-15.25-14.01-22.85-38.33-12.11-56.03,17.23,48.66,74.33,79.3,124.41,66.76,9.78-2.45,20-7.01,24.57-16,4.85-9.53,1.96-20.99-1.03-31.26-7.5-25.81-15.52-52.57-33.5-72.54-13.66-15.17-32.09-25.25-46.68-39.53-26.07-25.51-37.7-61.92-48.42-96.78-35.03,29.05-28.72,61.6-33.09,101.11-3.83,34.57-41.26,60-70.66,72.14-30.19,12.47-62.94,18.66-91.81,33.93-53.96,28.55-87.86,86.15-101.48,145.66-13.62,59.51-9.53,121.5-4.13,182.3,1.58,17.82,5.02,38.45,20.7,47.08,11.33,6.24,25.2,3.84,38.11,4.64,18.36,1.14,35.51,8.99,53.14,14.25,41.2,12.29,86.54,10.13,126.41-5.91,2.17-.87,3.43-3.02,3.48-5.36,.09-4.93,7.21-9.64,13.07-11.21,27.73-7.45,55.46-14.91,83.19-22.36,2.89-.78,2.9-4.89,.01-5.66-50.82-13.5-107.43-3.89-150.87,25.77-2.35,1.61-5.51-.21-5.26-3.05,5.95-67.6,11.89-135.2,17.84-202.8,16.78,19.58,39.7,36.62,65.48,36.26,22.74-.32,43.05-14.05,59.96-29.25,16.91-15.2,32.34-32.65,52.4-43.35,20.07-10.69,46.92-12.96,64.1,1.94,1.25-20.67-13.87-39.41-32.03-49.35Zm-82.24-121.98c4.52-14.43,21.47-15.27,30.83-4.67,4.43,5.02,6.26,12.23,4.74,18.76-.9,3.88-3.33,7.81-7.19,8.78-2.15,.54-4.42,.08-6.57-.47-4.29-1.1-8.49-2.54-12.56-4.31-3.28-1.42-6.72-3.17-8.61-6.23-2.15-3.48-1.87-7.97-.64-11.87Z"/></g><path class="c" d="M612.57,562.71c-25.12-65.4-22.09-74.42-51.77-119.92-12.05-18.48-27.07-35.07-41.15-52.17-32.45-39.41-61.82-80.78-82.12-127.95-16.66-38.7-25.5-78.82-20.9-121.2,.71-6.5,1.87-12.95,2.82-19.42,.37,.07,.89-11.85,4.47-19.06,.82-2.72,1.67-5.53,2.55-8.45,1.67-5.53,9.12-6.52,12.13-1.59,5.64,9.25,11.82,17.85,19.4,25.95,.79,.84,2.2,.28,2.18-.87v-.02c-.43-24.9,3.98-48.95,13.17-72.05,19.74-49.58,56.25-82.16,104.91-101.87,49.07-19.87,88.34-38.59,212.25-31.35-2.07,.62-63.55,10.11-65.67,10.5-15.61,2.81-31.37,4.97-46.8,8.55-38.63,8.95-75.55,22.32-108.61,44.87-30.05,20.5-51.37,47.51-62.14,82.61-10.35,33.71-13.37,68.28-12.15,103.25,.58,16.72,2,33.41,3.31,50.29,.38,4.92-5.58,7.66-9.07,4.17-11.66-11.67-22.18-24.39-28.81-40.86-.44,1.58-.76,2.19-.76,2.8,0,4.09-.14,8.2,.14,12.28,1.86,27.08,9.95,52.55,20.56,77.29,20.6,48.08,49.58,90.99,81.89,131.8,18.29,23.1,33.49,47.76,40.12,76.91,.34,1.51,.79,3,1.19,4.5l1.36-.04,3.57-17.95c.61,1.9,1.08,3.14,1.42,4.42,.46,1.73,.92,3.52,1.37,5.37,7.58,30.52,15.19,76.64,14.01,111.37-.14,4.02-5.86,4.64-6.88,.75l-6.02-22.92Z"/><path class="c" d="M812.93,265.54c-9.3-14.89-19.56-29.34-27.18-45.06-18.31-37.77-20.62-76.65-3.94-115.88,.6-1.41,1.29-2.78,1.95-4.17h0l-3.06-2.89c-6.92,3.75-13.93,7.37-20.48,11.68-2.95,1.94-5.8,4.03-8.6,6.18-6.3,4.84-15.52,.8-16.2-7.11-4.52-52.79,15.5-131.45,103.28-184.13,.02-.01,0-.05-.02-.04-19.11,6.62-37.06,15.58-53.5,27.43-43.76,31.55-66.64,75.28-73.63,127.9-5.87,44.17-.68,87.49,11.69,130.1,.27,.92,.62,1.81,1.27,3.68,0,.02,.04,.02,.04,0,1.76-7.68,2.86-14.47,4.94-20.95,2.09-6.51,5.13-12.71,7.77-19.04l1.84,.17c.46,2.14,.94,4.27,1.36,6.41,5.22,26.42,27.74,34.75,43.94,55.71,7.41,9.58,0,35.25,31.84,66.44,0,0,.01,0,.02,0,6.78-1.36,23.59-10.28,30.39-11.14,.02,0,.03-.02,.02-.03-1.95-3.05-31.91-22.34-33.74-25.28Z"/><path class="c" d="M1072.75,383.18c-3.08-9.67,2.25-15.61,12.85-15.32,2.81,.08,5.63-1.44,8.49-1.69,1.61-.14,3.5,.49,4.94,1.32,2.19,1.26,4.07,3.06,6.15,4.53,2.6,1.85,5.76,3.17,7.81,5.49,3.51,3.97,2.84,8.17-1.2,13.2,11.99,19.03-2.56,45.85-23.66,52.18-.13-24.4-10.17-40.32-29.5-47.41,2.73-6.45,7.52-10.14,14.11-12.3Zm6.97-1.29c7.97,1.38,15.75,2.72,24.72,4.27-8.5-4.67-16.23-6.28-24.72-4.27Z"/></g><g><path class="c" d="M716.36-29.33c-13.83-22.73-37.28-41.51-62.93-42.07-14.37-.31-27.95,4.98-41.07,10.31-29.52,11.99-59.15,24.78-84.07,44.54-24.92,19.76-45.02,47.46-49.7,79.85-1.44,9.96-1.37,20.41,1.89,30.15,3.27,9.74,10.03,18.71,19.23,23.05,11.45,5.4,24.74,2.95,35.77-2.21,11.03-5.17,20.69-12.84,31.56-18.33,2.65-1.34,5.53-2.58,8.55-2.25,5.7,.62,9.68,6.51,11.34,12.16,1.66,5.65,1.93,11.71,4.57,17,5.52,11.05,21.86,14.58,30.43,6.58,4.98-4.65,7.03-11.91,6.99-18.97-.04-7.06-1.95-14.05-3.83-20.94-4.18-15.26-8.36-30.51-12.54-45.77-2.18-7.96-4.48-16.16-9.54-22.73-5.06-6.57-13.67-11.12-21.21-8.77-9.06,2.83-12.65,13.79-13.15,23.55-.5,9.76,.76,20.17-3.48,28.75-4.26,8.62-14.12,13.8-23.74,12.46-9.62-1.33-18.39-9.09-21.1-18.68-4.34-15.32,6.06-30.06,17.26-40.32,14.98-13.72,33.04-24.66,53.25-27.91,20.22-3.25,42.73,2.03,58.14,16.82,6.13,5.88,11.14,13.42,12.38,21.76,2.82,18.94-13.86,37.69-5.94,55.31,4.16,9.27,14.37,14.78,24.18,15.46,9.81,.69,19.27-2.68,27.95-6.89,9.24-4.48,21.53-8.1,24.84-17.85,6.15-18.1,10.25-26.75,5.96-44.74-4.89-20.47-10.9-41.09-22-59.34Z"/><path class="c" d="M716.58,140.58c-9.62-14.01-35.61-18.17-52.43-12.44-16.82,5.73-30.28,18.75-41.36,32.62s-20.47,29.06-32.79,41.89c-6.64,6.92-14.42,13.27-23.63,15.87-9.21,2.6-20.06,.62-25.55-6.71-6.45-8.62-3.78-20.85-1.9-31.7,1.89-10.84,2.71-26.76-7.79-29.52-19.6-5.15-45.47-10.11-53.42-4.26-26.24,19.32-30.88,23.28-13.02,48.69,17.86,25.41,81.4,77.35,108.54,59.32,15.18-10.09,25.39-25.77,37.53-39.28,12.15-13.51,28.62-25.8,46.47-24.65,3.55,12.94-10.84,23.48-9.54,35.7,2.04,19.15,24.21,10.56,35.08,2.08,21.35-16.67,49.82-64.3,33.82-87.62Z"/><path class="c" d="M684.37,363.06c2.64-7.93,5.08-17.52,12.89-20.3,4.25-1.51,8.92-.44,13.38,.29,36.08,5.92,74.68-14.41,90.42-47.62,15.73-33.21,7.29-76.54-19.77-101.5-7.58-6.99-23.72-17.71-34.8-13.52-11.27,4.26-9.11,15.43-10.39,25.43-3.2,25-15.07,47.49-35.15,62.81-27.33,20.86-63.42,26.8-97.73,24.87-34.31-1.93-67.81-10.99-101.62-17.32-4.03-.75-26.83-1.46-29.4,1.74-1.55,1.95,.03,3.25,0,5.76-.35,33.83,26.12,70.05,47.74,96.02,21.63,25.97,55.09,42.43,88.48,40.13,33.38-2.3,65.31-24.79,75.96-56.8Zm51.01-111.43c13.35-24.65,48.36-35.14,49,3.04,.39,22.9-11.93,45.52-31.24,57.37-6.09,3.74-13.05,6.5-20.18,6.09-34.91-2.01-6.15-50.67,2.42-66.49Zm-146.74,121.01c-11.6-1.75-23.31-3.53-34.31-7.69-11-4.16-21.4-10.92-27.91-20.81-9-13.66,42.13-22.62,46.93-22.83,19.47-.87,39.53-2.27,58.8,1.41,7.59,1.45,15.6,3.9,20.38,10.05,4.89,6.3,5.16,15.47,1.78,22.66-3.38,7.19-9.95,12.47-17.2,15.57-15.06,6.44-32.25,4.1-48.47,1.65Z"/></g></g></svg>