<?xml version="1.0" encoding="UTF-8" standalone="no"?> <svg viewBox="0 0 488.44521 225.27907" version="1.1" id="svg41" sodipodi:docname="FOREGROUND_NO_EXTRAS (copy).svg" inkscape:version="1.2.1 (0f2f062aeb, 2022-09-21, custom)" width="488.44519" height="225.27907" xmlns:inkscape="http://www.inkscape.org/namespaces/inkscape" xmlns:sodipodi="http://sodipodi.sourceforge.net/DTD/sodipodi-0.dtd" xmlns="http://www.w3.org/2000/svg" xmlns:svg="http://www.w3.org/2000/svg"> <sodipodi:namedview id="namedview43" pagecolor="#ffffff" bordercolor="#666666" borderopacity="1.0" inkscape:showpageshadow="2" inkscape:pageopacity="0.0" inkscape:pagecheckerboard="0" inkscape:deskcolor="#d1d1d1" showgrid="false" inkscape:zoom="0.66020691" inkscape:cx="528.62215" inkscape:cy="467.27775" inkscape:window-width="1920" inkscape:window-height="1016" inkscape:window-x="0" inkscape:window-y="27" inkscape:window-maximized="1" inkscape:current-layer="svg41" /> <defs id="defs20"> <style id="style18">.c{fill:#fff;}</style> </defs> <g id="a" transform="translate(-299.07656,-140.11935)"> <g id="g36"> <path class="c" d="m 363.92,140.2 c -18.13,-0.89 -37.69,5.56 -47.78,20.64 -5.65,8.45 -7.84,18.69 -9.82,28.66 -4.47,22.45 -8.53,45.27 -6.86,68.1 1.68,22.83 9.68,45.96 26.22,61.79 5.08,4.86 11.02,9.03 17.78,11 6.76,1.97 14.41,1.54 20.36,-2.21 7.42,-4.66 11.1,-13.58 12.38,-22.24 1.28,-8.66 0.63,-17.51 1.66,-26.21 0.25,-2.12 0.65,-4.34 1.99,-6.01 2.52,-3.15 7.37,-3.16 11.2,-1.88 3.83,1.28 7.36,3.56 11.35,4.11 8.35,1.15 16.58,-7.18 15.32,-15.52 -0.73,-4.84 -4.06,-8.99 -8.07,-11.8 -4.01,-2.81 -8.69,-4.49 -13.3,-6.13 -10.22,-3.64 -20.45,-7.28 -30.67,-10.92 -5.33,-1.9 -10.85,-3.83 -16.49,-3.45 -5.65,0.38 -11.5,3.69 -13.04,9.13 -1.85,6.54 2.98,13.1 8.31,17.32 5.33,4.22 11.7,7.66 14.93,13.64 3.25,6.01 2.42,13.98 -2,19.18 -4.42,5.2 -12.15,7.32 -18.61,5.08 -10.32,-3.58 -14.69,-15.71 -16.23,-26.52 -2.05,-14.46 -1.35,-29.64 4.52,-43.01 5.87,-13.37 17.44,-24.69 31.68,-27.94 5.66,-1.29 11.84,-1.25 17.03,1.36 11.79,5.94 16.03,23.43 29.02,25.8 6.83,1.24 13.84,-2.64 17.96,-8.21 4.12,-5.57 5.83,-12.58 6.76,-19.45 0.99,-7.32 1.19,-14.85 -0.62,-22.01 -3.45,-13.65 -11.22,-16.88 -23.03,-21.55 -13.44,-5.32 -27.39,-10.02 -41.95,-10.74 z" id="path22" /> <path class="c" d="m 555.54,158.14 c 1.34,-8.61 10.2,-14.69 18.91,-14.88 8.71,-0.19 16.93,4.41 23.23,10.43 8.12,7.78 13.8,18.43 14.24,29.67 0.44,11.24 -4.87,22.87 -14.45,28.75 -2.18,1.34 -4.69,2.53 -5.78,4.84 -1.83,3.86 1.78,8.54 5.97,9.38 4.19,0.84 8.42,-0.96 12.24,-2.88 3.82,-1.92 7.77,-4.07 12.04,-3.99 4.27,0.08 8.83,3.42 8.46,7.68 -0.31,3.7 -3.92,6.14 -7.27,7.73 -9.29,4.41 -19.61,6.62 -29.88,6.42 -4.38,-0.09 -9.1,-0.77 -12.24,-3.82 -3.72,-3.61 -4.1,-9.5 -3.05,-14.58 1.35,-6.56 4.61,-12.54 7.79,-18.43 3.18,-5.89 6.37,-11.92 7.57,-18.51 1.2,-6.59 0.09,-13.94 -4.45,-18.85 -1.66,-1.79 -4.21,-3.27 -6.46,-2.31 -2.54,1.1 -2.97,4.46 -3.02,7.23 l -0.24,12.99 c -0.06,3.27 -0.83,7.44 -4.03,8.08 -2.99,0.6 -5.35,-2.57 -6.31,-5.47 -3.4,-10.33 -15.18,-17.24 -13.27,-29.48 z" id="path24" /> <path class="c" d="m 451.39,201.09 c -11.71,0.1 -21.63,10.09 -24.83,21.35 -3.2,11.26 -0.95,23.37 2.72,34.49 3.66,11.12 8.72,21.81 11.31,33.23 1.39,6.16 2.03,12.72 -0.03,18.69 -2.06,5.97 -7.37,11.15 -13.67,11.45 -7.41,0.35 -13.37,-5.59 -18.84,-10.6 -5.47,-5.01 -13.14,-9.72 -19.87,-6.59 -5.87,2.74 -7.82,10.22 -7.54,16.69 0.94,21.38 20.87,40.1 42.26,39.71 21.39,-0.39 40.62,-19.85 40.76,-41.25 0.08,-11.97 -4.95,-23.28 -7.99,-34.85 -3.04,-11.57 -3.73,-25.05 3.8,-34.35 8.76,2.82 9.25,14.52 16.73,18.29 11.73,5.92 15.35,-9.3 14.69,-18.34 -1.31,-17.74 -20.02,-48.09 -39.51,-47.93 z" id="path26" /> <path class="c" d="m 562.2,247.18 c -4.64,-3.14 -10.4,-6.46 -10.81,-12.05 -0.22,-3.04 1.29,-5.9 2.55,-8.68 10.2,-22.5 3.91,-51.35 -14.72,-67.57 -18.63,-16.22 -48.07,-18.46 -68.95,-5.26 -5.85,3.7 -15.61,12.32 -14.87,20.3 0.75,8.12 8.34,8.71 14.56,11.34 15.56,6.56 27.96,18.34 34.29,34.19 8.62,21.58 6.07,46.21 -1.24,68.27 -7.31,22.06 -19.08,42.31 -29.13,63.26 -1.2,2.49 -2.33,5.61 -0.72,7.85 0.98,1.36 2.7,1.95 4.31,2.41 21.76,6.28 45.84,5.76 66.41,-3.71 20.57,-9.47 37.1,-28.38 41.53,-50.59 4.42,-22.21 -4.44,-47.08 -23.2,-59.77 z m -62.84,-53.26 c -13.54,-13.13 -14.12,-37.87 10.62,-31.46 14.84,3.85 27.24,15.94 31.47,30.67 1.33,4.64 1.88,9.68 0.36,14.27 -7.47,22.44 -33.77,-5.05 -42.46,-13.48 z m 52.1,117.48 c -3.18,7.26 -6.4,14.59 -11.03,21.03 -4.63,6.44 -10.83,12.02 -18.36,14.5 -10.4,3.43 -7.14,-31.56 -6.43,-34.74 2.88,-12.87 5.53,-26.22 11.3,-38.14 2.27,-4.7 5.27,-9.49 10.09,-11.51 4.92,-2.06 10.89,-0.6 14.93,2.9 4.04,3.5 6.29,8.73 7,14.02 1.49,10.98 -3.06,21.79 -7.51,31.94 z" id="path28" /> <path class="c" d="m 674.43,171.59 c -2.56,-11.84 -10.56,-22.68 -21.7,-27.46 -7.68,-3.29 -17.12,-3.45 -23.96,1.35 -6.12,4.29 -9.24,11.76 -10.64,19.1 -3,15.83 1.43,39.23 13.18,51.31 12.62,12.98 29.86,4.64 37.36,-9.19 5.78,-10.65 8.32,-23.28 5.76,-35.12 z m -17.28,14.97 c -0.15,3.12 -0.51,6.33 -1.99,9.08 -1.48,2.75 -4.32,4.97 -7.44,4.88 -3.12,-0.1 -6.07,-3.16 -5.35,-6.2 l -0.54,-1.43 c -1.24,-8.07 -1.18,-16.33 0.17,-24.38 0.44,-2.59 1.05,-5.26 2.7,-7.31 1.65,-2.05 4.6,-3.26 6.98,-2.16 2.44,1.13 3.36,4.08 3.89,6.71 1.38,6.83 1.91,13.84 1.57,20.8 z" id="path30" /> <path class="c" d="m 683.98,176.5 c 0.05,-9.2 3.23,-18.76 10.27,-24.7 12.14,-10.24 32.66,-5.53 41.71,7.55 9.06,13.08 7.67,31.45 -0.43,45.09 -8.69,14.62 -23.85,24.44 -39.47,30.96 -1.97,0.82 -3.82,1.95 -5.27,3.51 -6.66,7.13 0.02,14.6 6.91,16.29 5.32,1.3 10.91,0.38 16.35,0.92 6.11,0.61 12.89,4.05 13.01,10.7 0.07,3.56 -1.91,6.78 -4.77,8.88 -5.05,3.7 -11.38,3.83 -17.42,3.78 -10.43,-0.08 -21.19,-0.58 -30.65,-4.99 -9.46,-4.41 -17.38,-13.67 -17.14,-24.08 0.31,-13.32 13.03,-22.81 25.29,-28.06 12.26,-5.25 26.09,-8.96 34.52,-19.28 5.3,-6.48 7.49,-22.18 -5.01,-21.35 -7.9,0.52 -13.72,20.25 -23.7,17.14 -3.85,-7.76 -4.23,-13.65 -4.19,-22.38 z" id="path32" /> <path class="c" d="m 762.38,167.73 c 3.46,1.38 5.83,5.09 5.65,8.8 -0.19,3.72 -2.93,7.16 -6.51,8.19 -3.76,1.08 -8.82,0.11 -10.75,3.51 -1.71,3.01 1.03,6.84 4.25,8.12 3.22,1.28 6.85,1.1 10.15,2.19 6.75,2.23 10.83,9.83 10.21,16.91 -0.61,7.08 -5.21,13.39 -11.08,17.4 -3.2,2.19 -6.8,3.82 -9.66,6.43 -2.86,2.61 -4.91,6.65 -3.74,10.35 1.62,5.12 8.65,6.68 13.52,4.42 4.87,-2.26 8.02,-7 10.92,-11.52 4.02,-6.26 8.08,-12.61 10.38,-19.68 2.3,-7.07 2.69,-15.07 -0.56,-21.76 -1.99,-4.08 -5.32,-7.84 -5.28,-12.38 0.04,-3.87 2.54,-7.2 4.07,-10.75 7.88,-18.33 -9.21,-31.66 -26.04,-30.81 -5.9,0.3 -13.71,0.9 -15.4,7.73 -3.33,13.46 13.26,10.21 19.86,12.85 z" id="path34" /> </g> <g id="g38" /> </g> </svg>